<?xml version="1.0" encoding="UTF-8"?>
<svg width="700pt" height="700pt" version="1.1" viewBox="0 0 700 700" xmlns="http://www.w3.org/2000/svg">
 <path d="m570.89 122.89v314.22c0 32.668-26.445 59.109-59.109 59.109h-202.22c-32.668 0-59.109-26.445-59.109-59.109v-51.332l43.555 9.332-0.003906 40.441c0 9.332 7.7773 17.109 17.109 17.109h199.11c9.332 0 17.109-7.7773 17.109-17.109l0.003906-309.55c0-9.332-7.7773-17.109-17.109-17.109h-199.11c-9.332 0-17.109 7.7773-17.109 17.109v116.67l-43.555-3.1094v-38.891c-87.109 40.445-66.891 60.668-18.668 71.555 6.2227 1.5547 12.445 3.1094 18.668 3.1094 14 1.5547 29.555 3.1094 43.555 4.668 9.332 1.5547 18.668 1.5547 28 1.5547 31.109 1.5547 54.445 1.5547 54.445 1.5547v-48.223c0-7.7773 9.332-6.2227 12.445-3.1094l90.223 62.223 35.777 24.891c3.1094 3.1094 3.1094 7.7773 0 12.445l-35.777 24.891-43.555 31.109-45.109 31.109c-1.5547 1.5547-4.668 3.1094-6.2227 3.1094-1.5547 0-6.2227 0-6.2227-4.668v-38.891c-23.332-4.668-45.109-7.7773-65.332-12.445-6.2227-1.5547-10.891-3.1094-17.109-3.1094-15.555-3.1094-31.109-7.7773-43.555-10.891-10.891-3.1094-20.223-6.2227-29.555-9.332-224-79.332 29.555-172.67 29.555-172.67l-0.007812-46.66c0-32.668 26.445-59.109 59.109-59.109h202.22c31.113-0.003906 57.559 26.441 57.559 59.109z" fill="#010101"/>
</svg>
